<?xml version="1.0" standalone="no"?>
<!DOCTYPE svg PUBLIC "-//W3C//DTD SVG 20010904//EN"
 "http://www.w3.org/TR/2001/REC-SVG-20010904/DTD/svg10.dtd">
<svg version="1.0" xmlns="http://www.w3.org/2000/svg"
 width="70.000000pt" height="70.000000pt" viewBox="0 0 70.000000 70.000000"
 preserveAspectRatio="xMidYMid meet">
<metadata>
Created by potrace 1.14, written by Peter Selinger 2001-2017
</metadata>
<g transform="translate(0.000000,70.000000) scale(0.100000,-0.100000)"
fill="#000000" stroke="none">
<path d="M263 660 c-17 -4 -51 -19 -76 -33 -178 -104 -210 -354 -65 -500 61
-61 123 -89 213 -95 182 -11 327 124 332 308 2 102 -23 168 -91 236 -81 81
-197 112 -313 84z m180 -186 c80 -21 127 -45 127 -65 0 -30 -15 -30 -94 -4
-79 26 -179 34 -277 20 -38 -5 -48 -3 -53 11 -8 22 9 42 42 47 65 8 207 4 255
-9z m-18 -109 c50 -13 105 -45 105 -61 0 -22 -27 -28 -53 -12 -46 30 -114 41
-212 34 -90 -6 -95 -5 -95 14 0 19 7 22 65 33 32 6 157 0 190 -8z m-22 -99
c67 -20 96 -40 80 -57 -9 -9 -21 -8 -55 6 -50 20 -135 27 -177 15 -36 -10 -72
9 -49 27 30 24 132 29 201 9z"/>
</g>
</svg>
